<svg width="733" height="108" viewBox="0 0 733 108" fill="none" xmlns="http://www.w3.org/2000/svg">
<g clip-path="url(#clip0_17_6)">
<path fill-rule="evenodd" clip-rule="evenodd" d="M98.6 1.03998C98.6 0.774762 98.4946 0.520422 98.3071 0.332886C98.1196 0.145349 97.8652 0.039978 97.6 0.039978H22.41C22.41 0.039978 0 0.0399818 0 22.45V66.27C0 66.5352 0.105341 66.7896 0.292877 66.9771C0.480414 67.1646 0.734784 67.27 1 67.27H34.85C35.1152 67.27 35.3696 67.1646 35.5571 66.9771C35.7446 66.7896 35.85 66.5352 35.85 66.27V41.37C35.85 41.1048 35.7446 40.8504 35.5571 40.6629C35.3696 40.4753 35.1152 40.37 34.85 40.37H28.01C27.8655 40.37 27.7225 40.3415 27.589 40.2863C27.4556 40.231 27.3343 40.15 27.2322 40.0478C27.13 39.9457 27.049 39.8244 26.9937 39.6909C26.9384 39.5575 26.91 39.4144 26.91 39.27V35.86C26.91 35.86 26.91 26.86 35.91 26.86H97.66C97.9252 26.86 98.1796 26.7546 98.3671 26.5671C98.5546 26.3796 98.66 26.1252 98.66 25.86L98.6 1.03998Z" fill="white"/>
<path fill-rule="evenodd" clip-rule="evenodd" d="M7.42034e-10 106.37C-5.54692e-06 106.527 0.0310948 106.683 0.0915222 106.828C0.15195 106.973 0.240488 107.104 0.352051 107.215C0.463614 107.326 0.595982 107.413 0.741516 107.472C0.88705 107.532 1.04287 107.561 1.19998 107.56H76.2C76.2 107.56 98.61 107.56 98.61 85.15V41.56C98.61 41.2365 98.4814 40.9262 98.2527 40.6974C98.0239 40.4686 97.7135 40.34 97.39 40.34H63.99C63.6585 40.34 63.3405 40.4717 63.1061 40.7061C62.8717 40.9406 62.74 41.2585 62.74 41.59V66.16C62.74 66.4438 62.8527 66.716 63.0534 66.9166C63.254 67.1173 63.5262 67.23 63.81 67.23H70.54C70.8503 67.23 71.1479 67.3533 71.3673 67.5727C71.5867 67.7921 71.71 68.0897 71.71 68.4V71.71C71.71 71.71 71.71 80.71 62.71 80.71H1.07999C0.796205 80.71 0.524059 80.8227 0.323395 81.0234C0.122731 81.2241 0.00997925 81.4962 0.00997925 81.78L7.42034e-10 106.37Z" fill="white"/>
<path d="M153.08 82.68L161.96 72.08C166.82 76.31 173.12 79.22 178.75 79.22C185.2 79.22 188.35 76.68 188.35 72.63C188.35 68.32 184.47 66.94 178.5 64.49L169.62 60.7C162.53 57.82 155.82 52 155.82 42.07C155.82 30.74 165.94 21.7 180.17 21.7C188.395 21.7225 196.287 24.9511 202.17 30.7L194.36 40.43C189.86 36.98 185.58 35.08 180.18 35.08C174.78 35.08 171.46 37.3 171.46 41.21C171.46 45.4 175.93 46.92 181.9 49.3L190.61 52.83C198.95 56.2 204.16 61.76 204.16 71.42C204.16 82.77 194.7 92.61 178.41 92.61C169.024 92.5731 159.99 89.0316 153.08 82.68Z" fill="white"/>
<path d="M215.79 22.96H235.08C255.95 22.96 269.4 33.34 269.4 56.84C269.4 80.34 255.95 91.31 235.94 91.31H215.79V22.96ZM234.17 78.87C245.76 78.87 253.6 73.18 253.6 56.87C253.6 40.56 245.76 35.43 234.17 35.43H231.24V78.9L234.17 78.87Z" fill="white"/>
<path d="M298.93 82.68L307.81 72.08C312.67 76.31 318.97 79.22 324.6 79.22C331.05 79.22 334.2 76.68 334.2 72.63C334.2 68.32 330.32 66.94 324.35 64.49L315.46 60.7C308.38 57.82 301.67 52 301.67 42.07C301.67 30.74 311.79 21.7 326.02 21.7C334.246 21.7172 342.14 24.9466 348.02 30.7L340.22 40.43C335.72 36.98 331.44 35.08 326.04 35.08C320.64 35.08 317.32 37.3 317.32 41.21C317.32 45.4 321.79 46.92 327.75 49.3L336.46 52.83C344.81 56.2 350.02 61.76 350.02 71.42C350.02 82.77 340.56 92.61 324.27 92.61C314.88 92.5794 305.841 89.0373 298.93 82.68Z" fill="white"/>
<path d="M357.35 65.31C357.35 48.01 369.53 38.02 382.69 38.02C395.85 38.02 408.04 48.02 408.04 65.31C408.04 82.6 395.86 92.57 382.69 92.57C369.52 92.57 357.35 82.57 357.35 65.31ZM392.24 65.31C392.24 56.31 389.07 50.46 382.69 50.46C376.31 50.46 373.15 56.31 373.15 65.31C373.15 74.31 376.31 80.13 382.69 80.13C389.07 80.13 392.24 74.32 392.24 65.31Z" fill="white"/>
<path d="M418.57 75.14V17.84H433.99V75.77C433.99 79.08 435.52 80.13 436.77 80.13C437.407 80.1505 438.043 80.0798 438.66 79.92L440.5 91.28C438.031 92.2205 435.4 92.659 432.76 92.57C422.19 92.57 418.57 85.67 418.57 75.14Z" fill="white"/>
<path d="M448.08 71.58V39.28H463.48V69.6C463.48 77.09 465.48 79.43 469.95 79.43C473.82 79.43 476.19 77.81 479.2 73.71V39.28H494.61V91.28H482.08L480.96 84.06H480.58C476.24 89.24 471.34 92.54 464.25 92.54C452.89 92.57 448.08 84.58 448.08 71.58Z" fill="white"/>
<path d="M510.21 72.39V51.39H503.08V39.89L511.08 39.3L512.89 25.48H525.64V39.3H538.08V51.39H525.63V72.23C525.63 78.12 528.3 80.49 532.36 80.49C534.071 80.4391 535.761 80.101 537.36 79.49L539.79 90.69C536.063 91.9372 532.16 92.5754 528.23 92.58C515.32 92.57 510.21 84.45 510.21 72.39Z" fill="white"/>
<path d="M547.08 23.61C547.08 18.88 550.83 15.55 556 15.55C561.17 15.55 564.93 18.88 564.93 23.61C564.93 28.34 561.18 31.67 556 31.67C550.82 31.67 547.08 28.3 547.08 23.61ZM548.28 39.28H563.69V91.28H548.29L548.28 39.28Z" fill="white"/>
<path d="M574.21 65.31C574.21 48.01 586.39 38.02 599.55 38.02C612.71 38.02 624.89 48.02 624.89 65.31C624.89 82.6 612.72 92.57 599.55 92.57C586.38 92.57 574.21 82.57 574.21 65.31ZM609.1 65.31C609.1 56.31 605.93 50.46 599.55 50.46C593.17 50.46 590.01 56.31 590.01 65.31C590.01 74.31 593.17 80.13 599.55 80.13C605.93 80.13 609.08 74.32 609.08 65.31H609.1Z" fill="white"/>
<path d="M635.43 39.28H648.01L649.12 45.87H649.5C653.88 41.66 659.12 38.02 666.22 38.02C677.53 38.02 682.36 46.02 682.36 59.02V91.32H666.94V60.96C666.94 53.47 664.94 51.13 660.48 51.13C656.6 51.13 654.24 52.93 650.85 56.19V91.29H635.43V39.28Z" fill="white"/>
<path d="M690.81 85.3L697.75 75.7C702.46 79.26 706.82 81.16 711.17 81.16C715.76 81.16 717.74 79.41 717.74 76.69C717.74 73.26 712.59 71.69 707.23 69.61C700.85 67.14 693.46 62.91 693.46 54.31C693.46 44.62 701.34 38.02 713.34 38.02C720.022 38.0836 726.486 40.4062 731.68 44.61L724.78 53.87C721.08 51.18 717.43 49.42 713.78 49.42C709.78 49.42 707.84 50.98 707.84 53.58C707.84 56.9 712.71 58.17 718.1 60.13C724.69 62.57 732.1 66.27 732.1 75.79C732.1 85.31 724.67 92.57 710.73 92.57C703.482 92.3469 696.498 89.798 690.81 85.3Z" fill="white"/>
</g>
<defs>
<clipPath id="clip0_17_6">
<rect width="732.16" height="107.56" fill="white"/>
</clipPath>
</defs>
</svg>
